<?xml version="1.0" encoding="utf-8"?>
<!-- Generator: Adobe Illustrator 16.0.0, SVG Export Plug-In . SVG Version: 6.00 Build 0)  -->
<!DOCTYPE svg PUBLIC "-//W3C//DTD SVG 1.1//EN" "http://www.w3.org/Graphics/SVG/1.1/DTD/svg11.dtd">
<svg version="1.1" id="Layer_1" xmlns="http://www.w3.org/2000/svg" xmlns:xlink="http://www.w3.org/1999/xlink" x="0px" y="0px"
	 width="72px" height="72px" viewBox="0 0 72 72" enable-background="new 0 0 72 72" xml:space="preserve">
<g>
	<path fill-rule="evenodd" clip-rule="evenodd" fill="#A94259" stroke="#A94259" stroke-miterlimit="10" d="M160.032,82.869
		c4.068,5.668,7.811,10.882,11.877,16.549c-4.498,1.446-7.43,1.428-9.756-2.028c-2.037-3.025-4.707-5.684-6.674-8.743
		c-1.85-2.876-4.213-3.503-7.678-3.847c-6.059-0.603-9.705,1.529-12.219,6.398c-0.934,1.81-2.549,3.311-3.48,5.12
		c-2.164,4.195-5.555,4.852-10.805,3.196c3.975-5.556,7.785-10.882,11.453-16.009c-2.303-1.329-5.049-2.133-6.34-3.881
		c-1.275-1.725-1.346-4.391-1.48-6.668c-0.488-8.254-0.932-16.516-1.107-24.778c-0.25-11.644,5.523-17.25,17.953-17.692
		c3.324-0.119,6.658-0.079,9.984-0.006c11.992,0.266,18.035,5.988,17.791,17.315c-0.195,9.042-0.781,18.079-1.359,27.11
		C167.815,80.792,166.819,81.683,160.032,82.869z M124.929,98.53c1.934-0.551,2.588-0.545,2.801-0.828
		c2.592-3.439,5.178-6.886,7.648-10.401c4.904-6.977,16.92-7.037,22.121-0.134c2.879,3.824,5.936,7.53,8.914,11.29
		c0.389-0.276,0.775-0.552,1.164-0.828c-4.018-5.533-8.033-11.066-12.324-16.977c2.66-0.214,4.811,0.04,6.529-0.65
		c1.551-0.623,3.672-2.223,3.75-3.487c0.652-10.754,1.236-21.532,1.131-32.298c-0.061-6.183-3.811-9.906-10.328-10.848
		c-5.051-0.729-10.301-0.836-15.412-0.512c-10.297,0.651-14.906,5.56-14.689,15.264c0.172,7.809,0.535,15.617,1.025,23.414
		c0.525,8.354,0.635,8.344,9.457,8.949c0.242,0.017,0.463,0.314,1.01,0.71C133.72,86.622,129.698,92.071,124.929,98.53z"/>
	<path fill-rule="evenodd" clip-rule="evenodd" fill="#A94259" stroke="#A94259" stroke-miterlimit="10" d="M146.89,59.372
		c-4.158,0-8.32-0.071-12.477,0.022c-3.01,0.07-4.732-0.722-4.625-3.719c0.143-3.951,0.135-7.914-0.043-11.863
		c-0.123-2.701,1.357-3.736,4.131-3.762c8.652-0.083,17.303-0.141,25.953-0.196c2.914-0.019,4.145,1.276,4.088,3.841
		c-0.09,3.953-0.061,7.911,0.055,11.863c0.074,2.578-1.07,3.773-4.105,3.699c-4.322-0.107-8.65-0.027-12.977-0.027
		C146.89,59.277,146.89,59.324,146.89,59.372z M132.563,42.539c0,5.052,0,9.772,0,14.356c9.787,0,19.145,0,28.57,0
		c0-5.03,0-9.643,0-14.356C151.425,42.539,142.054,42.539,132.563,42.539z"/>
	
		<ellipse fill-rule="evenodd" clip-rule="evenodd" fill="none" stroke="#A94259" stroke-width="3" stroke-miterlimit="10" cx="138.237" cy="71.609" rx="5.197" ry="5.018"/>
	
		<ellipse fill-rule="evenodd" clip-rule="evenodd" fill="none" stroke="#A94259" stroke-width="3" stroke-miterlimit="10" cx="155.65" cy="71.609" rx="5.198" ry="5.018"/>
	
		<line display="none" fill="none" stroke="#A94259" stroke-width="3" stroke-linecap="round" stroke-miterlimit="10" x1="135.526" y1="97.506" x2="157.769" y2="97.506"/>
	
		<line display="none" fill="none" stroke="#A94259" stroke-width="3" stroke-linecap="round" stroke-miterlimit="10" x1="140.237" y1="91.083" x2="152.452" y2="91.083"/>
</g>
<g>
	<path fill="none" stroke="#A94259" stroke-width="3" stroke-miterlimit="10" d="M107.285,24.46
		c0.016,0.063,0.016,0.128,0.016,0.193l1.058,34.456c0,1.176-2.112,2.693-3.413,2.693c-0.653,0-1.517-0.32-2.224-0.783
		c-0.698-0.471-1.238-1.084-1.238-1.666l1.104-34.7c0-0.065,0-0.122,0.015-0.178c-4.285-1.368-7.468-6.464-7.468-12.544
		c0-7.133,4.381-12.914,9.785-12.914c5.408,0,9.789,5.78,9.789,12.914C114.708,17.989,111.55,23.07,107.285,24.46z"/>
</g>
<g>
	<path fill="none" stroke="#A94259" stroke-width="3" stroke-linejoin="round" stroke-miterlimit="10" d="M57.734,67.188
		c0,1.352-3.148,3.119-5.088,3.119c-0.971,0-2.26-0.371-3.313-0.912c-1.041-0.541-1.846-1.252-1.846-1.938l1.443-35.264
		c-2.484-0.135-4.603-0.626-4.603-1.474c0.342-2.587,0.709-5.175,1.065-7.761c0.569-4.198,1.065-8.396,1.74-12.579
		c0.378-2.38,0.494-4.646,2.223-6.906c0.712-0.927,1.22-2.024,3.329-1.732c2.113,0.299,3.82,1.817,3.82,3.107v25.871
		c0,0.149-0.062,0.285-0.191,0.405L57.734,67.188z"/>
</g>
<g>
	<path fill="none" stroke="#A94259" stroke-width="3" stroke-linecap="round" stroke-linejoin="round" stroke-miterlimit="10" d="
		M27.642,31.249c0.126,0.222,0.195,0.457,0.195,0.706l1.525,34.456c0,1.17-3.047,2.695-4.929,2.695c-0.938,0-2.186-0.32-3.195-0.791
		c-1.021-0.463-1.799-1.076-1.799-1.668l1.581-34.692c0-0.249,0.067-0.484,0.196-0.699c-4.035-0.156-6.956-2.572-6.956-5.459V7.617
		c0-0.591,0.768-2.095,1.719-2.095c0.48,0-0.947-0.827,1.986,0c0.525,0.148,1.167,2.013,1.167,2.312c0,0-0.236,12.959-0.236,13.008
		c0,0.207,1.057,0.224,1.332,0.208c0.988-0.035,1.605-0.349,2.488-0.599V7.617c0-0.591,0.769-2.095,1.717-2.095
		c0.471,0,0.895,0.377,1.217,0.827c0.308,0.449,0.502,0.969,0.502,1.269c0,0,0,12.828,0,12.835c0,0.115,1.732,0.406,1.914,0.428
		c0.608,0.057,1.193-0.029,1.765-0.144c0.104-0.021,0.104,0.022,0.104-0.021l0.197-12.882c0-0.591,1.66-2.312,2.599-2.312
		c0.48,0,0.904,0.377,1.214,0.827c0.309,0.449,0.503,0.969,0.503,1.269V21.4c0,1.104,0.091,2.665,0.091,4.518
		C34.54,28.797,31.688,31.106,27.642,31.249z"/>
</g>
</svg>
