<?xml version="1.0" encoding="utf-8"?>
<!-- Generator: Adobe Illustrator 16.0.0, SVG Export Plug-In . SVG Version: 6.00 Build 0)  -->
<!DOCTYPE svg PUBLIC "-//W3C//DTD SVG 1.1//EN" "http://www.w3.org/Graphics/SVG/1.1/DTD/svg11.dtd">
<svg version="1.1" id="Layer_1" xmlns="http://www.w3.org/2000/svg" xmlns:xlink="http://www.w3.org/1999/xlink" x="0px" y="0px"
	 width="72px" height="72px" viewBox="0 0 72 72" enable-background="new 0 0 72 72" xml:space="preserve">
<g>
	<defs>
		<rect id="SVGID_1_" x="-51.479" y="-461.521" width="664.504" height="1181.341"/>
	</defs>
	<clipPath id="SVGID_2_">
		<use xlink:href="#SVGID_1_"  overflow="visible"/>
	</clipPath>
	<g clip-path="url(#SVGID_2_)">
		<defs>
			<path id="SVGID_3_" d="M58.05,10.826c-3.125,0.304-6.255-1.559-7.26,2.732c-0.01,0.048-2.162,0.012-2.477-0.503
				c-1.626-2.659,0.125-5.704,3.271-5.692c11.54,0.048,9.665-1.332,9.839,9.158c0.021,1.115,0.155,2.255-0.021,3.342
				c-1.026,6.342,0.922,11.362,6.143,15.223c1.046,0.773,1.424,2.458,2.108,3.721c-1.402,0.365-2.79,0.963-4.207,1.045
				c-2.893,0.164-5.801,0.049-9.352,0.049c0,7.229,0.001,14.143,0,21.059c0,6.588-0.002,6.623-6.539,6.582
				c-9.43-0.061-8.353,1.146-8.417-8.516c-0.024-3.582-0.004-7.164-0.004-10.982H30.799c0,3.021,0.194,5.795-0.081,8.521
				c-0.142,1.396-1.127,2.707-1.73,4.059c-0.521-1.268-1.457-2.52-1.496-3.803C27.085,43.6,28.663,42.219,41.863,44.508
				c1.036,0.182,2.461,2.107,2.521,3.283c0.274,5.252,0.119,10.527,0.119,16.07h8.201c0-7.094-0.002-14.021,0-20.947
				c0.002-6.419,0.003-6.42,6.28-6.437c1.246-0.004,2.492-0.001,3.692-0.001c0.133-0.418,0.34-0.839,0.272-0.89
				c-5.305-3.949-5.259-9.577-4.93-15.362C58.187,17.319,58.05,14.395,58.05,10.826"/>
		</defs>
		<clipPath id="SVGID_4_">
			<use xlink:href="#SVGID_3_"  overflow="visible"/>
		</clipPath>
		
			<rect x="24.761" y="4.652" clip-path="url(#SVGID_4_)" fill-rule="evenodd" clip-rule="evenodd" fill="#A94259" width="47.566" height="65.583"/>
	</g>
</g>
<g>
	<defs>
		<rect id="SVGID_5_" x="-51.479" y="-461.521" width="664.504" height="1181.341"/>
	</defs>
	<clipPath id="SVGID_6_">
		<use xlink:href="#SVGID_5_"  overflow="visible"/>
	</clipPath>
	<g clip-path="url(#SVGID_6_)">
		<defs>
			<path id="SVGID_7_" d="M8.576,36.478c2.397,0,4.509,0.142,6.595-0.034c3.106-0.258,4.167,1.027,4.105,4.113
				c-0.154,7.65-0.05,15.309-0.05,23.588c2.664,0,4.999-0.207,7.271,0.078c1.381,0.172,2.667,1.107,3.996,1.701
				c-1.258,0.541-2.502,1.512-3.778,1.555c-10.877,0.383-10.878,0.332-10.878-10.547V39.898c-3.67,0-7.076,0.072-10.476-0.047
				c-1.013-0.033-2.006-0.611-3.011-0.939c0.434-1.07,0.595-2.41,1.343-3.169C13.57,25.713,23.562,15.798,33.437,5.768
				c1.961-1.992,3.368-1.781,5.179,0.123c3.456,3.634,7.147,7.046,10.562,10.717c0.872,0.938,1.075,2.5,1.586,3.773
				c-1.272-0.434-2.881-0.519-3.758-1.365c-3.591-3.464-6.957-7.159-10.482-10.849C26.91,17.906,18.021,26.91,8.576,36.478z"/>
		</defs>
		<clipPath id="SVGID_8_">
			<use xlink:href="#SVGID_7_"  overflow="visible"/>
		</clipPath>
		
			<rect x="-0.323" y="1.691" clip-path="url(#SVGID_8_)" fill-rule="evenodd" clip-rule="evenodd" fill="#A94259" width="53.763" height="68.571"/>
	</g>
</g>
</svg>
