<?xml version="1.0" encoding="utf-8"?>
<!-- Generator: Adobe Illustrator 16.0.0, SVG Export Plug-In . SVG Version: 6.00 Build 0)  -->
<!DOCTYPE svg PUBLIC "-//W3C//DTD SVG 1.1//EN" "http://www.w3.org/Graphics/SVG/1.1/DTD/svg11.dtd">
<svg version="1.1" id="Layer_1" xmlns="http://www.w3.org/2000/svg" xmlns:xlink="http://www.w3.org/1999/xlink" x="0px" y="0px"
	 width="72px" height="72px" viewBox="0 0 72 72" enable-background="new 0 0 72 72" xml:space="preserve">
<g>
	<g>
		<g display="none">
			<defs>
				<rect id="SVGID_1_" x="-51.479" y="-461.521" width="664.504" height="1181.341"/>
			</defs>
			<clipPath id="SVGID_2_" display="inline">
				<use xlink:href="#SVGID_1_"  overflow="visible"/>
			</clipPath>
			<g display="inline" clip-path="url(#SVGID_2_)">
				<g>
					<g>
						<defs>
							<path id="SVGID_3_" d="M58.05,10.826c-3.125,0.304-6.255-1.559-7.26,2.732c-0.011,0.048-2.162,0.012-2.478-0.503
								c-1.625-2.659,0.125-5.704,3.271-5.692c11.54,0.048,9.665-1.332,9.839,9.158c0.021,1.115,0.155,2.255-0.021,3.342
								c-1.025,6.342,0.923,11.362,6.144,15.223c1.046,0.773,1.424,2.458,2.106,3.721c-1.4,0.365-2.789,0.963-4.207,1.045
								c-2.893,0.164-5.801,0.049-9.352,0.049c0,7.229,0.002,14.145,0,21.061c0,6.588-0.002,6.623-6.539,6.582
								c-9.43-0.062-8.353,1.146-8.416-8.518c-0.025-3.582-0.005-7.164-0.005-10.98H30.799c0,3.021,0.194,5.795-0.081,8.521
								c-0.142,1.396-1.127,2.707-1.73,4.06c-0.521-1.269-1.457-2.521-1.496-3.804C27.085,43.6,28.663,42.219,41.863,44.508
								c1.035,0.182,2.461,2.107,2.521,3.283c0.274,5.252,0.119,10.527,0.119,16.07h8.201c0-7.094-0.002-14.021,0-20.947
								c0.002-6.419,0.003-6.42,6.28-6.437c1.246-0.004,2.492-0.001,3.69-0.001c0.134-0.418,0.341-0.839,0.272-0.89
								c-5.307-3.949-5.26-9.577-4.932-15.362C58.188,17.319,58.05,14.395,58.05,10.826"/>
						</defs>
						<clipPath id="SVGID_4_">
							<use xlink:href="#SVGID_3_"  overflow="visible"/>
						</clipPath>
						<rect x="24.761" y="4.652" clip-path="url(#SVGID_4_)" fill="#A94259" width="47.566" height="65.583"/>
					</g>
				</g>
				<g>
					<defs>
						<rect id="SVGID_5_" x="-51.479" y="-461.521" width="664.504" height="1181.341"/>
					</defs>
					<clipPath id="SVGID_6_">
						<use xlink:href="#SVGID_5_"  overflow="visible"/>
					</clipPath>
					<g clip-path="url(#SVGID_6_)">
						<g>
							<g>
								<defs>
									<rect id="SVGID_7_" x="-51.479" y="-461.521" width="664.504" height="1181.341"/>
								</defs>
								<clipPath id="SVGID_8_">
									<use xlink:href="#SVGID_7_"  overflow="visible"/>
								</clipPath>
								<g clip-path="url(#SVGID_8_)">
									<g>
										<g>
											<defs>
												<path id="SVGID_9_" d="M5.361,39.852c-1.013-0.033-2.006-0.611-3.011-0.939c0.434-1.07,0.595-2.41,1.343-3.169"/>
											</defs>
											<defs>
												<path id="SVGID_10_" d="M8.576,36.478"/>
											</defs>
											<clipPath id="SVGID_11_">
												<use xlink:href="#SVGID_9_"  overflow="visible"/>
											</clipPath>
											<clipPath id="SVGID_12_" clip-path="url(#SVGID_11_)">
												<use xlink:href="#SVGID_10_"  overflow="visible"/>
											</clipPath>
											<polyline clip-path="url(#SVGID_12_)" fill="#A94259" points="53.439,70.262 -0.323,70.262 -0.323,1.691 											"/>
										</g>
									</g>
								</g>
							</g>
						</g>
					</g>
				</g>
			</g>
		</g>
	</g>
</g>
<polygon fill="none" stroke="#A94259" stroke-width="3" stroke-linecap="round" stroke-linejoin="round" stroke-miterlimit="10" points="
	53,36.75 53,66.25 41.25,66.25 41.25,47.75 29.5,47.75 29.5,66.25 17.75,66.25 17.75,36.75 "/>
<polygon fill="none" stroke="#A94259" stroke-width="3" stroke-linecap="round" stroke-linejoin="round" stroke-miterlimit="10" points="
	64.25,36.75 7.75,36.75 35.25,5.75 47.5,18.84 47.5,9.75 56.75,9.75 55.67,27.58 "/>
</svg>
