<?xml version="1.0" encoding="utf-8"?>
<!-- Generator: Adobe Illustrator 16.0.0, SVG Export Plug-In . SVG Version: 6.00 Build 0)  -->
<!DOCTYPE svg PUBLIC "-//W3C//DTD SVG 1.1//EN" "http://www.w3.org/Graphics/SVG/1.1/DTD/svg11.dtd">
<svg version="1.1" id="Layer_1" xmlns="http://www.w3.org/2000/svg" xmlns:xlink="http://www.w3.org/1999/xlink" x="0px" y="0px"
	 width="72px" height="72px" viewBox="0 0 72 72" enable-background="new 0 0 72 72" xml:space="preserve">
<g>
	<path fill-rule="evenodd" clip-rule="evenodd" fill="#FFFFFF" d="M68,55.056c-1.105,1.31-3.176,1.736-6.099,1.727
		c-13.241-0.044-26.488-0.018-39.732-0.02c-2.552-0.001-4.347-0.57-4.964-1.553c-0.926-1.473,1.258-2.81,4.689-2.815
		c8.024-0.015,16.047-0.006,24.069-0.005c5.386,0,10.773,0.047,16.158-0.018c2.899-0.034,4.858,0.452,5.878,1.746
		C68,54.43,68,54.741,68,55.056z"/>
	<path fill-rule="evenodd" clip-rule="evenodd" fill="#FFFFFF" d="M68,39.186c-1.105,1.31-3.176,1.736-6.099,1.727
		c-13.241-0.044-26.488-0.018-39.732-0.02c-2.552-0.001-4.347-0.57-4.964-1.553c-0.926-1.473,1.258-2.81,4.689-2.815
		c8.024-0.015,16.047-0.006,24.069-0.005c5.386,0,10.773,0.047,16.158-0.018c2.899-0.034,4.858,0.452,5.878,1.746
		C68,38.56,68,38.871,68,39.186z"/>
	<path fill-rule="evenodd" clip-rule="evenodd" fill="#FFFFFF" d="M68,23.5c-1.105,1.31-3.176,1.736-6.099,1.727
		c-13.241-0.044-26.488-0.018-39.732-0.02c-2.552-0.001-4.347-0.57-4.964-1.553c-0.926-1.473,1.258-2.81,4.689-2.815
		c8.024-0.015,16.047-0.006,24.069-0.005c5.386,0,10.773,0.047,16.158-0.018c2.899-0.034,4.858,0.452,5.878,1.746
		C68,22.874,68,23.186,68,23.5z"/>
	<path fill-rule="evenodd" clip-rule="evenodd" fill="#FFFFFF" d="M1,22.455c0.419-1.13,1.052-2.061,2.284-2.424
		c1.664-0.491,3.44,0.426,3.964,2.044c0.536,1.659-0.324,3.459-1.923,4.029c-1.665,0.592-3.468-0.236-4.106-1.884
		C1.148,24.038,1.073,23.856,1,23.674C1,23.268,1,22.861,1,22.455z"/>
	<path fill-rule="evenodd" clip-rule="evenodd" fill="#FFFFFF" d="M1,38.064c0.419-1.131,1.052-2.061,2.284-2.424
		c1.664-0.491,3.44,0.426,3.964,2.044c0.536,1.659-0.324,3.46-1.923,4.028c-1.665,0.592-3.468-0.235-4.106-1.883
		C1.148,39.646,1.073,39.466,1,39.283C1,38.877,1,38.471,1,38.064z"/>
	<path fill-rule="evenodd" clip-rule="evenodd" fill="#FFFFFF" d="M1,53.935c0.419-1.131,1.052-2.061,2.284-2.425
		c1.664-0.49,3.44,0.427,3.964,2.045c0.536,1.659-0.324,3.46-1.923,4.028C3.66,58.175,1.856,57.348,1.218,55.7
		C1.148,55.517,1.073,55.336,1,55.153C1,54.747,1,54.341,1,53.935z"/>
</g>
</svg>
