<?xml version="1.0" encoding="utf-8"?>
<!-- Generator: Adobe Illustrator 16.0.0, SVG Export Plug-In . SVG Version: 6.00 Build 0)  -->
<!DOCTYPE svg PUBLIC "-//W3C//DTD SVG 1.1//EN" "http://www.w3.org/Graphics/SVG/1.1/DTD/svg11.dtd">
<svg version="1.1" id="Layer_1" xmlns="http://www.w3.org/2000/svg" xmlns:xlink="http://www.w3.org/1999/xlink" x="0px" y="0px"
	 width="72px" height="72px" viewBox="0 0 72 72" enable-background="new 0 0 72 72" xml:space="preserve">
<g>
	<path fill-rule="evenodd" clip-rule="evenodd" fill="#FFFFFF" d="M57.583,23.86c0.235-0.98,0.421-1.752,0.688-2.867
		c2.177,0.459,4.32,0.702,6.312,1.385c2.354,0.806,3.527,2.808,3.542,5.229c0.067,11.884,0.085,23.77,0.021,35.655
		c-0.017,2.925-2.143,4.393-5.038,3.725c-5.018-1.157-10.015-2.407-15.044-3.513c-1.126-0.246-2.393-0.268-3.517-0.032
		c-6.138,1.282-12.243,2.715-18.38,3.993c-1.024,0.213-2.257,0.184-3.219-0.187c-5.362-2.062-10.662-4.284-16-6.409
		C4.02,59.674,2.66,57.548,2.664,54.43c0.015-11.063-0.013-22.126,0.015-33.19c0.011-3.906,2.126-5.374,5.881-4.181
		c2.134,0.678,4.237,1.473,6.399,2.039c4.825,1.265,9.348,4.296,14.714,2.262c0.344,1.069,0.589,1.833,0.916,2.851
		c-1.519,0.294-2.94,0.571-4.455,0.864c0,13.126,0,26.175,0,39.403c6.215-1.372,12.323-2.718,18.701-4.125
		c0-4.639,0.137-9.255-0.055-13.859c-0.102-2.408,1.132-3.792,3.009-5.593c0,4.989,0,9.52,0,14.049c0,5.368-0.002,5.373,5.242,6.631
		c3.9,0.934,7.807,1.853,11.97,2.84c0.093-1.274,0.221-2.22,0.222-3.164c0.015-10.391,0.011-20.781,0.009-31.172
		c-0.001-4.595-0.252-4.896-4.701-5.692C59.595,24.225,58.66,24.054,57.583,23.86z M22.802,64.081
		c0.146-0.609,0.241-0.821,0.241-1.033c0.012-12.259,0.04-24.517-0.048-36.774c-0.004-0.664-0.859-1.688-1.535-1.924
		c-4.506-1.577-9.067-2.995-13.619-4.435c-0.592-0.186-1.238-0.201-1.833-0.292c-0.171,0.454-0.316,0.657-0.316,0.862
		C5.677,31.996,5.636,43.504,5.741,55.012c0.008,0.921,0.808,2.313,1.604,2.668C12.375,59.916,17.507,61.921,22.802,64.081z"/>
	<path fill-rule="evenodd" clip-rule="evenodd" fill="#FFFFFF" d="M44.091,5.022c8.018,0.049,13.243,7.052,11.33,15.332
		c-1.636,7.078-5.615,12.929-10.051,18.506c-0.882,1.111-1.855,1.187-2.774,0.028c-4.193-5.287-8.006-10.818-9.774-17.432
		c-1.417-5.3-1.086-10.404,3.823-13.873c2.095-1.481,4.78-2.127,7.199-3.152C43.926,4.629,44.009,4.826,44.091,5.022z M43.99,35.936
		c4.028-5.514,7.629-10.793,8.758-17.297c0.65-3.749-0.347-7.03-3.7-9.136C45.74,7.425,42.247,7.39,38.924,9.506
		c-3.345,2.129-4.334,5.355-3.689,9.13C36.35,25.153,39.941,30.418,43.99,35.936z"/>
	<path fill-rule="evenodd" clip-rule="evenodd" fill="#FFFFFF" d="M43.907,23.792c-3.572-0.04-6.492-3.025-6.481-6.629
		c0.011-3.637,2.906-6.544,6.534-6.562c3.655-0.017,6.761,3.125,6.647,6.726C50.496,20.896,47.455,23.831,43.907,23.792z
		 M47.591,17.188c0-2.043-1.649-3.707-3.651-3.68c-1.994,0.025-3.625,1.738-3.583,3.766c0.038,1.943,1.608,3.502,3.556,3.531
		C45.979,20.837,47.591,19.251,47.591,17.188z"/>
</g>
</svg>
