<?xml version="1.0" encoding="utf-8"?>
<!-- Generator: Adobe Illustrator 16.0.0, SVG Export Plug-In . SVG Version: 6.00 Build 0)  -->
<!DOCTYPE svg PUBLIC "-//W3C//DTD SVG 1.1//EN" "http://www.w3.org/Graphics/SVG/1.1/DTD/svg11.dtd">
<svg version="1.1" id="Layer_1" xmlns="http://www.w3.org/2000/svg" xmlns:xlink="http://www.w3.org/1999/xlink" x="0px" y="0px"
	 width="42.979px" height="61.875px" viewBox="0 14.125 42.979 61.875" enable-background="new 0 14.125 42.979 61.875"
	 xml:space="preserve">
<g>
	<g>
		<path id="SVGID_1_" fill="#12002E" d="M37.167,47.955c2.208-3.133,3.506-6.971,3.506-11.109c0-10.57-8.451-19.139-18.873-19.139
			c-10.425,0-18.875,8.567-18.875,19.139c0,3.91,1.156,7.545,3.142,10.573H6.042l15.759,25.603L37.167,47.955z"/>
	</g>
	<g>
		<g>
			<path id="SVGID_2_" fill="#12002E" d="M37.167,47.955c2.208-3.133,3.506-6.971,3.506-11.109c0-10.57-8.451-19.139-18.873-19.139
				c-10.425,0-18.875,8.567-18.875,19.139c0,3.91,1.156,7.545,3.142,10.573H6.042l15.759,25.603L37.167,47.955z"/>
		</g>
		<g>
			<defs>
				<path id="SVGID_3_" d="M37.167,47.955c2.208-3.133,3.506-6.971,3.506-11.109c0-10.57-8.451-19.139-18.873-19.139
					c-10.425,0-18.875,8.567-18.875,19.139c0,3.91,1.156,7.545,3.142,10.573H6.042l15.759,25.603L37.167,47.955z"/>
			</defs>
			<clipPath id="SVGID_4_">
				<use xlink:href="#SVGID_3_"  overflow="visible"/>
			</clipPath>
			<rect x="0.614" y="15.399" clip-path="url(#SVGID_4_)" fill="#12002E" width="42.365" height="59.932"/>
		</g>
	</g>
</g>
<g>
	<g>
		<g>
			<defs>
				<path id="SVGID_5_" d="M35.587,46.679c2.208-3.131,3.506-6.967,3.506-11.109c0-10.569-8.45-19.138-18.873-19.138
					C9.795,16.431,1.346,25,1.346,35.569c0,3.91,1.155,7.545,3.142,10.574H4.462l15.76,25.602L35.587,46.679z"/>
			</defs>
			<clipPath id="SVGID_6_">
				<use xlink:href="#SVGID_5_"  overflow="visible"/>
			</clipPath>
			<rect x="-0.965" y="14.125" clip-path="url(#SVGID_6_)" fill="#871639" width="42.365" height="59.93"/>
		</g>
	</g>
</g>
<g>
	<g>
		<g>
			<defs>
				<ellipse id="SVGID_7_" cx="20.221" cy="35.334" rx="11.647" ry="11.175"/>
			</defs>
			<clipPath id="SVGID_8_">
				<use xlink:href="#SVGID_7_"  overflow="visible"/>
			</clipPath>
			<rect x="6.262" y="21.852" clip-path="url(#SVGID_8_)" fill="#A94259" width="27.914" height="26.967"/>
		</g>
	</g>
</g>
</svg>
