<?xml version="1.0" encoding="utf-8"?>
<!-- Generator: Adobe Illustrator 16.0.0, SVG Export Plug-In . SVG Version: 6.00 Build 0)  -->
<!DOCTYPE svg PUBLIC "-//W3C//DTD SVG 1.1//EN" "http://www.w3.org/Graphics/SVG/1.1/DTD/svg11.dtd">
<svg version="1.1" id="Layer_1" xmlns="http://www.w3.org/2000/svg" xmlns:xlink="http://www.w3.org/1999/xlink" x="0px" y="0px"
	 width="372.16px" height="76px" viewBox="0 0 372.16 76" enable-background="new 0 0 372.16 76" xml:space="preserve">
<g>
	<polyline fill="#12002E" points="56.321,17.512 44.792,17.512 31.5,45.17 18.207,17.512 6.615,17.512 6.615,61.549 14.048,61.549 
		14.048,27.152 29.356,57.709 33.516,57.709 48.888,27.152 48.888,61.549 56.321,61.549 56.321,17.512 	"/>
	<path fill="#12002E" d="M84.879,42.364c-4.065,0-7.496-1.528-10.29-4.594c-2.795-3.062-4.191-6.774-4.191-11.146
		c0-4.365,1.396-8.08,4.191-11.144c2.794-3.063,6.225-4.595,10.29-4.595c4.064,0,7.494,1.531,10.289,4.595
		c2.794,3.062,4.192,6.776,4.192,11.144c0,4.369-1.398,8.084-4.192,11.146C92.374,40.836,88.943,42.364,84.879,42.364 M84.879,4.183
		c-6.098,0-11.219,2.142-15.361,6.426c-4.144,4.283-6.215,9.623-6.215,16.019c0,6.395,2.071,11.733,6.215,16.02
		c4.143,4.283,9.264,6.426,15.361,6.426c6.097,0,11.217-2.143,15.36-6.426c4.143-4.285,6.215-9.625,6.215-16.02
		c0-6.396-2.072-11.734-6.215-16.019C96.097,6.324,90.977,4.183,84.879,4.183"/>
	<path fill="#12002E" d="M159.642,17.512h-8.316L137.78,50.399l-13.545-32.888h-8.315l17.702,44.037h8.316L159.642,17.512
		 M197.439,17.512h-30.932v44.037h31.688v-6.991H173.94V42.776h21.104v-6.614H173.94V24.506h23.499V17.512 M217.537,44.668
		l8.002-18.146l8,18.146H217.537 M229.508,17.512h-7.939l-19.402,44.037h7.938l4.408-10.017h22.051l4.41,10.017h7.938
		L229.508,17.512 M263.021,54.684V42.649h10.709c6.258,0,9.389,1.953,9.389,5.858c0,2.395-0.725,4.023-2.174,4.885
		s-3.539,1.291-6.27,1.291H263.021 M263.021,35.783V24.379h9.514c2.729,0,4.744,0.465,6.049,1.388
		c1.301,0.925,1.951,2.437,1.951,4.534c0,3.656-2.688,5.481-8.062,5.481L263.021,35.783 M272.725,17.512h-17.137v44.037h19.277
		c6.006,0,10.248-1.362,12.727-4.094c2.1-2.353,3.15-5.061,3.15-8.128c0-2.771-0.811-5.092-2.426-6.962
		c-1.617-1.867-3.791-3.097-6.521-3.685c0.756-0.337,1.281-0.577,1.574-0.726c0.295-0.146,0.84-0.515,1.639-1.104
		c2.184-1.68,3.275-4.241,3.275-7.686c0-2.855-1.008-5.418-3.023-7.687c-1.051-1.22-2.656-2.183-4.818-2.897
		C278.277,17.871,275.705,17.512,272.725,17.512 M308.066,17.512h-7.434v44.037h27.529v-7.055h-20.096V17.512 M367.791,17.512
		h-30.934v44.037h31.688v-6.991h-24.254V42.776h21.104v-6.614h-21.104V24.506h23.498v-6.994"/>
</g>
<g>
	<polygon fill="#FFFFFF" points="11.048,24.151 26.356,54.709 30.516,54.709 45.888,24.151 45.888,58.549 53.321,58.549 
		53.321,14.512 41.792,14.512 28.5,42.17 15.207,14.512 3.615,14.512 3.615,58.549 11.048,58.549 	"/>
	<path fill="#FFFFFF" d="M85.062,42.366c-4.085,0-7.531-1.53-10.339-4.595c-2.809-3.062-4.212-6.775-4.212-11.145
		s1.403-8.082,4.212-11.145c2.808-3.062,6.254-4.594,10.339-4.594s7.53,1.529,10.34,4.594c2.807,3.062,4.212,6.775,4.212,11.145
		s-1.405,8.082-4.212,11.145C92.592,40.836,89.146,42.366,85.062,42.366 M85.062,4.183c-6.127,0-11.272,2.143-15.435,6.426
		c-4.164,4.284-6.245,9.624-6.245,16.021c0,6.394,2.081,11.733,6.245,16.019c4.162,4.283,9.308,6.425,15.435,6.425
		s11.271-2.142,15.436-6.425c4.162-4.284,6.244-9.625,6.244-16.019c0-6.396-2.082-11.735-6.244-16.021
		C96.333,6.325,91.188,4.183,85.062,4.183"/>
	<path fill="#FFFFFF" d="M333.857,14.512v44.037h31.688v-6.991h-24.254V39.776h21.104v-6.614h-21.104V21.506h23.498v-6.994H333.857z
		 M325.164,58.549v-7.055h-20.098V14.512h-7.434v44.037H325.164z M260.021,39.649h10.709c6.258,0,9.389,1.953,9.389,5.858
		c0,2.396-0.725,4.023-2.174,4.884s-3.539,1.291-6.27,1.291h-11.654V39.649L260.021,39.649z M260.021,21.379h9.514
		c2.729,0,4.744,0.463,6.049,1.388c1.301,0.924,1.951,2.436,1.951,4.534c0,3.654-2.688,5.482-8.062,5.482h-9.451V21.379
		L260.021,21.379z M284.592,54.457c2.1-2.353,3.15-5.062,3.15-8.127c0-2.773-0.811-5.095-2.426-6.964
		c-1.617-1.866-3.791-3.096-6.521-3.686c0.756-0.337,1.281-0.576,1.574-0.726c0.295-0.146,0.84-0.514,1.639-1.102
		c2.184-1.68,3.275-4.242,3.275-7.686c0-2.855-1.008-5.418-3.023-7.688c-1.051-1.218-2.656-2.183-4.818-2.896
		c-2.164-0.716-4.736-1.072-7.719-1.072h-17.135v44.037h19.277C277.871,58.549,282.113,57.187,284.592,54.457z M214.537,41.668
		l8.002-18.146l8,18.146H214.537z M233.562,48.534l4.41,10.017h7.938l-19.404-44.037h-7.938l-19.404,44.037h7.938l4.41-10.017
		H233.562z M163.508,14.512v44.037h31.687v-6.991h-24.254V39.776h21.105v-6.614h-21.105V21.506h23.498v-6.994H163.508z
		 M156.642,14.512h-8.316L134.78,47.399l-13.545-32.888h-8.315l17.702,44.037h8.316L156.642,14.512z"/>
</g>
<g>
	<g>
		<path id="SVGID_1_" fill="#12002E" d="M105.757,41.944c2.737-3.885,4.347-8.642,4.347-13.774
			c0-13.105-10.477-23.728-23.399-23.728c-12.925,0-23.401,10.621-23.401,23.728c0,4.848,1.433,9.354,3.895,13.11h-0.031
			l19.538,31.742L105.757,41.944z"/>
	</g>
	<g>
		<defs>
			<path id="SVGID_2_" d="M105.757,41.944c2.737-3.885,4.347-8.642,4.347-13.774c0-13.105-10.477-23.728-23.399-23.728
				c-12.925,0-23.401,10.621-23.401,23.728c0,4.848,1.433,9.354,3.895,13.11h-0.031l19.538,31.742L105.757,41.944z"/>
		</defs>
		<use xlink:href="#SVGID_2_"  overflow="visible" fill="#12002E"/>
		<clipPath id="SVGID_3_">
			<use xlink:href="#SVGID_2_"  overflow="visible"/>
		</clipPath>
		<rect x="60.439" y="1.58" clip-path="url(#SVGID_3_)" fill="#12002E" width="52.525" height="74.305"/>
	</g>
</g>
<g>
	<g>
		<defs>
			<path id="SVGID_4_" d="M103.799,40.362c2.737-3.883,4.347-8.639,4.347-13.774c0-13.104-10.477-23.728-23.399-23.728
				c-12.925,0-23.401,10.623-23.401,23.728c0,4.848,1.433,9.354,3.895,13.11H65.21L84.749,71.44L103.799,40.362z"/>
		</defs>
		<clipPath id="SVGID_5_">
			<use xlink:href="#SVGID_4_"  overflow="visible"/>
		</clipPath>
		<rect x="58.481" clip-path="url(#SVGID_5_)" fill="#871639" width="52.525" height="74.303"/>
	</g>
</g>
<g>
	<g>
		<defs>
			<ellipse id="SVGID_6_" cx="84.747" cy="26.296" rx="14.441" ry="13.854"/>
		</defs>
		<clipPath id="SVGID_7_">
			<use xlink:href="#SVGID_6_"  overflow="visible"/>
		</clipPath>
		<rect x="67.441" y="9.58" clip-path="url(#SVGID_7_)" fill="#A94259" width="34.608" height="33.434"/>
	</g>
</g>
</svg>
