<?xml version="1.0" encoding="utf-8"?>
<!-- Generator: Adobe Illustrator 16.0.0, SVG Export Plug-In . SVG Version: 6.00 Build 0)  -->
<!DOCTYPE svg PUBLIC "-//W3C//DTD SVG 1.1//EN" "http://www.w3.org/Graphics/SVG/1.1/DTD/svg11.dtd">
<svg version="1.1" id="Layer_1" xmlns="http://www.w3.org/2000/svg" xmlns:xlink="http://www.w3.org/1999/xlink" x="0px" y="0px"
	 width="372.16px" height="76px" viewBox="0 0 372.16 76" enable-background="new 0 0 372.16 76" xml:space="preserve">
<text transform="matrix(1 0 0 1 0.499 61.667)" opacity="0.5"><tspan x="0" y="0" font-family="'Montserrat-Regular'" font-size="63">M</tspan><tspan x="62.495" y="0" opacity="0" font-family="'Montserrat-Regular'" font-size="63">O</tspan><tspan x="115.981" y="0" font-family="'Montserrat-Regular'" font-size="63">VEABLE</tspan></text>
<text transform="matrix(1 0 0 1 -2.501 58.667)"><tspan x="0" y="0" fill="#FFFFFF" font-family="'Montserrat-Regular'" font-size="63">M</tspan><tspan x="62.495" y="0" opacity="0" fill="#FFFFFF" font-family="'Montserrat-Regular'" font-size="63">O</tspan><tspan x="115.981" y="0" fill="#FFFFFF" font-family="'Montserrat-Regular'" font-size="63">VEABLE</tspan></text>
<g opacity="0.5">
	<defs>
		<path id="SVGID_1_" opacity="0.5" d="M105.753,42.061c2.737-3.884,4.347-8.64,4.347-13.775c0-13.104-10.477-23.727-23.399-23.727
			c-12.925,0-23.401,10.622-23.401,23.727c0,4.848,1.433,9.354,3.895,13.111h-0.031L86.7,73.139L105.753,42.061z"/>
	</defs>
	<use xlink:href="#SVGID_1_"  overflow="visible" fill-rule="evenodd" clip-rule="evenodd"/>
	<clipPath id="SVGID_2_">
		<use xlink:href="#SVGID_1_"  overflow="visible"/>
	</clipPath>
	<rect x="60.436" y="1.696" clip-path="url(#SVGID_2_)" fill-rule="evenodd" clip-rule="evenodd" width="52.525" height="74.304"/>
</g>
<g>
	<defs>
		<path id="SVGID_3_" d="M102.795,40.479c2.737-3.884,4.347-8.64,4.347-13.775c0-13.104-10.477-23.727-23.399-23.727
			c-12.925,0-23.401,10.622-23.401,23.727c0,4.848,1.433,9.354,3.895,13.111h-0.031l19.538,31.742L102.795,40.479z"/>
	</defs>
	<clipPath id="SVGID_4_">
		<use xlink:href="#SVGID_3_"  overflow="visible"/>
	</clipPath>
	
		<rect x="57.478" y="0.115" clip-path="url(#SVGID_4_)" fill-rule="evenodd" clip-rule="evenodd" fill="#871639" width="52.525" height="74.304"/>
</g>
<g>
	<defs>
		<ellipse id="SVGID_5_" cx="84.742" cy="26.413" rx="14.441" ry="13.854"/>
	</defs>
	<clipPath id="SVGID_6_">
		<use xlink:href="#SVGID_5_"  overflow="visible"/>
	</clipPath>
	
		<rect x="67.438" y="9.696" clip-path="url(#SVGID_6_)" fill-rule="evenodd" clip-rule="evenodd" fill="#A94259" width="34.608" height="33.433"/>
</g>
</svg>
