<?xml version="1.0" encoding="utf-8"?>
<!-- Generator: Adobe Illustrator 16.0.0, SVG Export Plug-In . SVG Version: 6.00 Build 0)  -->
<!DOCTYPE svg PUBLIC "-//W3C//DTD SVG 1.1//EN" "http://www.w3.org/Graphics/SVG/1.1/DTD/svg11.dtd">
<svg version="1.1" id="Layer_1" xmlns="http://www.w3.org/2000/svg" xmlns:xlink="http://www.w3.org/1999/xlink" x="0px" y="0px"
	 width="72px" height="72px" viewBox="0 0 72 72" enable-background="new 0 0 72 72" xml:space="preserve">
<g>
	<path fill="#A94259" stroke="#A94259" stroke-miterlimit="10" d="M49.43,53.049c4.067,5.668,7.811,10.883,11.877,16.549
		c-4.498,1.446-7.43,1.428-9.757-2.027c-2.036-3.025-3.336-6.338-5.304-9.396c-2.658-4.66-6.529-4.663-9.993-5.007
		c-6.06-0.604-8.378,2.616-10.891,7.485c-0.934,1.81-2.931,4.037-3.863,5.846c-2.164,4.195-5.555,4.852-10.805,3.195
		c3.976-5.555,7.786-10.881,11.454-16.008c-2.304-1.33-5.049-2.134-6.341-3.881c-1.275-1.726-1.346-4.392-1.48-6.669
		c-0.487-8.254-0.932-16.515-1.107-24.778C12.97,6.715,18.743,1.108,31.174,0.666c3.323-0.119,6.657-0.079,9.983-0.005
		C53.15,0.926,59.191,6.648,58.948,17.976c-0.195,9.042-0.781,18.08-1.359,27.11C57.212,50.973,56.216,51.861,49.43,53.049z
		 M14.326,68.71c1.933-0.551,2.587-0.545,2.801-0.828c2.591-3.438,5.177-6.886,7.647-10.401C32,48,42.218,49.5,46.895,57.348
		c2.881,3.823,5.938,7.529,8.914,11.289c0.39-0.275,0.776-0.552,1.164-0.828c-4.017-5.533-8.033-11.065-12.322-16.977
		c2.66-0.214,4.811,0.04,6.529-0.65c1.549-0.623,3.672-2.223,3.748-3.486c0.652-10.754,1.236-21.532,1.131-32.297
		C56,8.214,52.249,4.49,45.732,3.549C40.682,2.82,35.431,2.713,30.32,3.037c-10.298,0.652-14.907,5.56-14.69,15.265
		c0.173,7.809,0.535,15.617,1.025,23.414c0.525,8.354,0.635,8.345,9.458,8.949c0.242,0.017,0.462,0.313,1.009,0.71
		C23.116,56.802,19.095,62.251,14.326,68.71z"/>
	<path fill="#A94259" stroke="#A94259" stroke-miterlimit="10" d="M36.287,29.552c-4.159,0-8.32-0.072-12.477,0.023
		c-3.011,0.07-4.733-0.722-4.626-3.72c0.143-3.95,0.136-7.914-0.043-11.863c-0.122-2.701,1.357-3.736,4.132-3.762
		c8.651-0.083,17.302-0.141,25.952-0.196c2.914-0.018,4.146,1.276,4.088,3.84c-0.09,3.954-0.061,7.912,0.056,11.864
		c0.073,2.577-1.07,3.773-4.104,3.698c-4.322-0.106-8.65-0.026-12.977-0.026C36.287,29.457,36.287,29.504,36.287,29.552z
		 M21.96,12.719c0,5.052,0,9.772,0,14.356c9.787,0,19.146,0,28.569,0c0-5.03,0-9.643,0-14.356
		C40.822,12.719,31.45,12.719,21.96,12.719z"/>
	<ellipse fill="none" stroke="#A94259" stroke-width="3" stroke-miterlimit="10" cx="27.634" cy="41.789" rx="5.198" ry="5.018"/>
	<ellipse fill="none" stroke="#A94259" stroke-width="3" stroke-miterlimit="10" cx="45.047" cy="41.789" rx="5.198" ry="5.018"/>
	
		<line display="none" fill="none" stroke="#A94259" stroke-width="3" stroke-linecap="round" stroke-miterlimit="10" x1="24.924" y1="67.686" x2="47.166" y2="67.686"/>
	
		<line display="none" fill="none" stroke="#A94259" stroke-width="3" stroke-linecap="round" stroke-miterlimit="10" x1="29.634" y1="61.264" x2="41.85" y2="61.264"/>
</g>
<polygon fill="#FFFFFF" stroke="#A94259" stroke-width="3" stroke-linecap="round" stroke-linejoin="round" stroke-miterlimit="10" points="
	61.363,69.446 53.597,69.566 42.218,51.931 49.535,51.738 "/>
<polygon fill="#FFFFFF" stroke="#A94259" stroke-width="3" stroke-linecap="round" stroke-linejoin="round" stroke-miterlimit="10" points="
	10.694,69.446 18.46,69.566 29.839,51.931 22.522,51.738 "/>
<line fill="none" stroke="#A94259" stroke-width="3" stroke-linecap="round" stroke-linejoin="round" stroke-miterlimit="10" x1="27.122" y1="51.738" x2="45.047" y2="51.738"/>
</svg>
