<?xml version="1.0" encoding="utf-8"?>
<!-- Generator: Adobe Illustrator 16.0.0, SVG Export Plug-In . SVG Version: 6.00 Build 0)  -->
<!DOCTYPE svg PUBLIC "-//W3C//DTD SVG 1.1//EN" "http://www.w3.org/Graphics/SVG/1.1/DTD/svg11.dtd">
<svg version="1.1" id="Layer_1" xmlns="http://www.w3.org/2000/svg" xmlns:xlink="http://www.w3.org/1999/xlink" x="0px" y="0px"
	 width="372.16px" height="76px" viewBox="0 0 372.16 76" enable-background="new 0 0 372.16 76" xml:space="preserve">
<g>
	<polyline fill="#414042" points="56.321,17.571 44.792,17.571 31.499,45.229 18.206,17.571 6.614,17.571 6.614,61.608 
		14.048,61.608 14.048,27.211 29.356,57.767 33.515,57.767 48.887,27.211 48.887,61.608 56.321,61.608 56.321,17.571 	"/>
	<path fill="#FFFFFF" d="M84.879,42.423c-4.065,0-7.496-1.529-10.29-4.594c-2.795-3.062-4.191-6.775-4.191-11.145
		c0-4.366,1.396-8.081,4.191-11.144c2.794-3.063,6.225-4.594,10.29-4.594c4.064,0,7.494,1.53,10.289,4.594
		c2.794,3.062,4.192,6.777,4.192,11.144c0,4.369-1.398,8.083-4.192,11.145C92.373,40.894,88.943,42.423,84.879,42.423 M84.879,4.241
		c-6.098,0-11.219,2.142-15.361,6.426c-4.144,4.283-6.215,9.623-6.215,16.018s2.071,11.734,6.215,16.02
		c4.143,4.283,9.264,6.426,15.361,6.426c6.097,0,11.217-2.143,15.36-6.426c4.143-4.285,6.215-9.625,6.215-16.02
		s-2.072-11.734-6.215-16.018C96.096,6.383,90.976,4.241,84.879,4.241"/>
	<path fill="#414042" d="M159.641,17.571h-8.316l-13.545,32.887l-13.545-32.887h-8.315l17.702,44.037h8.316L159.641,17.571
		 M197.44,17.571h-30.933v44.037h31.688v-6.992h-24.255V42.835h21.105v-6.614h-21.105V24.565h23.499V17.571 M217.537,44.726
		l8.001-18.146l8.001,18.146H217.537 M229.507,17.571h-7.938l-19.404,44.037h7.938l4.409-10.017h22.051l4.409,10.017h7.938
		L229.507,17.571 M263.021,54.742V42.708h10.71c6.258,0,9.387,1.953,9.387,5.859c0,2.394-0.724,4.023-2.173,4.884
		s-3.539,1.291-6.269,1.291H263.021 M263.021,35.842V24.438h9.513c2.73,0,4.746,0.464,6.049,1.387
		c1.301,0.925,1.952,2.437,1.952,4.535c0,3.655-2.688,5.481-8.063,5.481H263.021 M272.724,17.571h-17.136v44.037h19.277
		c6.006,0,10.248-1.363,12.727-4.094c2.1-2.353,3.149-5.061,3.149-8.128c0-2.772-0.809-5.092-2.425-6.962
		c-1.617-1.868-3.791-3.097-6.521-3.685c0.756-0.337,1.28-0.577,1.574-0.726c0.294-0.146,0.84-0.514,1.639-1.103
		c2.184-1.679,3.275-4.241,3.275-7.686c0-2.855-1.008-5.418-3.023-7.686c-1.051-1.219-2.657-2.183-4.819-2.898
		C278.277,17.929,275.705,17.571,272.724,17.571 M308.066,17.571h-7.434v44.037h27.53v-7.055h-20.097V17.571 M367.79,17.571h-30.933
		v44.037h31.688v-6.992h-24.255V42.835h21.105v-6.614h-21.105V24.565h23.499V17.571"/>
</g>
<g>
	<polygon fill="#FFFFFF" points="11.048,24.21 26.356,54.767 30.515,54.767 45.887,24.21 45.887,58.608 53.321,58.608 
		53.321,14.571 41.792,14.571 28.499,42.229 15.206,14.571 3.614,14.571 3.614,58.608 11.048,58.608 	"/>
	<path fill="#FFFFFF" d="M85.062,42.425c-4.085,0-7.531-1.53-10.339-4.595c-2.809-3.062-4.212-6.775-4.212-11.144
		s1.403-8.082,4.212-11.145c2.808-3.063,6.254-4.594,10.339-4.594s7.53,1.53,10.34,4.594c2.807,3.062,4.212,6.776,4.212,11.145
		s-1.405,8.082-4.212,11.144C92.592,40.895,89.146,42.425,85.062,42.425 M85.062,4.241c-6.127,0-11.272,2.143-15.435,6.426
		c-4.164,4.284-6.245,9.624-6.245,16.02c0,6.394,2.081,11.734,6.245,16.019c4.162,4.283,9.308,6.425,15.435,6.425
		s11.271-2.142,15.436-6.425c4.162-4.284,6.244-9.625,6.244-16.019c0-6.396-2.082-11.735-6.244-16.02
		C96.333,6.384,91.188,4.241,85.062,4.241"/>
	<path fill="#FFFFFF" d="M333.857,14.571v44.037h31.688v-6.992h-24.255V39.835h21.105V33.22h-21.105V21.565h23.499v-6.994H333.857z
		 M325.163,58.608v-7.055h-20.097V14.571h-7.434v44.037H325.163z M260.021,39.708h10.71c6.258,0,9.387,1.953,9.387,5.859
		c0,2.395-0.724,4.023-2.173,4.883c-1.449,0.861-3.539,1.291-6.269,1.291h-11.655V39.708z M260.021,21.438h9.513
		c2.73,0,4.746,0.463,6.049,1.387c1.301,0.924,1.952,2.436,1.952,4.535c0,3.654-2.688,5.482-8.063,5.482h-9.45V21.438z
		 M284.592,54.515c2.1-2.352,3.149-5.061,3.149-8.127c0-2.773-0.809-5.094-2.425-6.963c-1.617-1.867-3.791-3.096-6.521-3.686
		c0.756-0.336,1.28-0.576,1.574-0.725c0.294-0.146,0.84-0.514,1.639-1.102c2.184-1.68,3.275-4.242,3.275-7.686
		c0-2.855-1.008-5.418-3.023-7.688c-1.051-1.217-2.657-2.182-4.819-2.896c-2.164-0.715-4.736-1.072-7.718-1.072h-17.136v44.037
		h19.277C277.871,58.608,282.113,57.245,284.592,54.515z M214.537,41.726l8.001-18.145l8.001,18.145H214.537z M233.563,48.593
		l4.409,10.016h7.938l-19.404-44.037h-7.938l-19.404,44.037h7.938l4.409-10.016H233.563z M163.508,14.571v44.037h31.688v-6.992
		h-24.255V39.835h21.105V33.22h-21.105V21.565h23.499v-6.994H163.508z M156.641,14.571h-8.316l-13.545,32.887l-13.545-32.887h-8.315
		l17.702,44.037h8.316L156.641,14.571z"/>
</g>
<g>
	<defs>
		<path id="SVGID_1_" d="M105.757,42.003c2.737-3.885,4.347-8.641,4.347-13.775c0-13.105-10.477-23.727-23.399-23.727
			c-12.925,0-23.401,10.621-23.401,23.727c0,4.848,1.433,9.354,3.895,13.111h-0.031l19.538,31.742L105.757,42.003z"/>
	</defs>
	<use xlink:href="#SVGID_1_"  overflow="visible" fill-rule="evenodd" clip-rule="evenodd" fill="#414042"/>
	<clipPath id="SVGID_2_">
		<use xlink:href="#SVGID_1_"  overflow="visible"/>
	</clipPath>
	
		<rect x="60.439" y="1.638" clip-path="url(#SVGID_2_)" fill-rule="evenodd" clip-rule="evenodd" fill="#414042" width="52.525" height="74.305"/>
</g>
<g>
	<defs>
		<path id="SVGID_3_" d="M103.799,40.421c2.737-3.883,4.347-8.639,4.347-13.775c0-13.104-10.477-23.727-23.399-23.727
			c-12.925,0-23.401,10.623-23.401,23.727c0,4.848,1.433,9.355,3.895,13.111h-0.031l19.538,31.742L103.799,40.421z"/>
	</defs>
	<clipPath id="SVGID_4_">
		<use xlink:href="#SVGID_3_"  overflow="visible"/>
	</clipPath>
	
		<rect x="58.481" y="0.058" clip-path="url(#SVGID_4_)" fill-rule="evenodd" clip-rule="evenodd" fill="#871639" width="52.525" height="74.303"/>
</g>
<g>
	<defs>
		<ellipse id="SVGID_5_" cx="84.746" cy="26.355" rx="14.441" ry="13.854"/>
	</defs>
	<clipPath id="SVGID_6_">
		<use xlink:href="#SVGID_5_"  overflow="visible"/>
	</clipPath>
	
		<rect x="67.441" y="9.638" clip-path="url(#SVGID_6_)" fill-rule="evenodd" clip-rule="evenodd" fill="#A94259" width="34.608" height="33.434"/>
</g>
<g opacity="0.5">
	<path d="M-247.544-82.391h-7.434v-44.038h11.592l13.293,27.657l13.293-27.657h11.529v44.038h-7.435v-34.399l-15.372,30.555h-4.158
		l-15.309-30.555V-82.391z"/>
	<path opacity="0" d="M-155.628-88.471c-4.452,4.348-9.954,6.521-16.506,6.521s-12.055-2.174-16.506-6.521
		c-4.452-4.348-6.678-9.766-6.678-16.254c0-6.488,2.226-11.906,6.678-16.254c4.451-4.347,9.954-6.521,16.506-6.521
		s12.054,2.174,16.506,6.521c4.451,4.348,6.678,9.766,6.678,16.254C-148.95-98.236-151.177-92.818-155.628-88.471z
		 M-161.077-116.033c-3.004-3.108-6.688-4.662-11.057-4.662s-8.054,1.554-11.057,4.662s-4.504,6.877-4.504,11.308
		c0,4.432,1.501,8.202,4.504,11.309c3.003,3.109,6.688,4.662,11.057,4.662s8.053-1.553,11.057-4.662
		c3.002-3.107,4.505-6.877,4.505-11.309C-156.572-109.156-158.075-112.924-161.077-116.033z"/>
	<path d="M-119.654-82.391h-8.316l-17.702-44.038h8.315l13.545,32.885l13.545-32.885h8.316L-119.654-82.391z"/>
	<path d="M-64.151-126.428v6.993H-87.65v11.655h21.105v6.614H-87.65v11.781h24.255v6.994h-31.688v-44.038H-64.151z"/>
	<path d="M-47.079-92.408l-4.409,10.018h-7.938l19.404-44.038h7.938l19.404,44.038h-7.938l-4.409-10.018H-47.079z M-28.053-99.275
		l-8.001-18.144l-8.001,18.144H-28.053z"/>
	<path d="M13.273-82.391H-6.004v-44.038h17.136c2.981,0,5.554,0.357,7.718,1.071c2.162,0.715,3.769,1.68,4.819,2.897
		c2.016,2.269,3.023,4.831,3.023,7.687c0,3.444-1.092,6.007-3.275,7.686c-0.799,0.589-1.345,0.956-1.639,1.103
		c-0.294,0.147-0.818,0.389-1.574,0.725c2.729,0.589,4.903,1.817,6.521,3.686c1.616,1.869,2.425,4.189,2.425,6.961
		c0,3.066-1.05,5.775-3.149,8.127C23.521-83.756,19.279-82.391,13.273-82.391z M1.43-108.158h9.45c5.376,0,8.063-1.827,8.063-5.481
		c0-2.1-0.651-3.611-1.952-4.536c-1.303-0.923-3.318-1.386-6.049-1.386H1.43V-108.158z M1.43-89.258h11.655
		c2.729,0,4.819-0.43,6.269-1.291s2.173-2.49,2.173-4.883c0-3.906-3.129-5.859-9.387-5.859H1.43V-89.258z"/>
	<path d="M39.041-82.391v-44.038h7.434v36.981h20.097v7.057H39.041z"/>
	<path d="M106.198-126.428v6.993H82.699v11.655h21.105v6.614H82.699v11.781h24.255v6.994H75.266v-44.038H106.198z"/>
</g>
<g>
	<path fill="#FFFFFF" d="M-250.544-85.391h-7.434v-44.038h11.592l13.293,27.657l13.293-27.657h11.529v44.038h-7.435v-34.399
		l-15.372,30.555h-4.158l-15.309-30.555V-85.391z"/>
	<path opacity="0" fill="#FFFFFF" d="M-158.628-91.471c-4.452,4.348-9.954,6.521-16.506,6.521s-12.055-2.174-16.506-6.521
		c-4.452-4.348-6.678-9.766-6.678-16.254c0-6.488,2.226-11.906,6.678-16.254c4.451-4.347,9.954-6.521,16.506-6.521
		s12.054,2.174,16.506,6.521c4.451,4.348,6.678,9.766,6.678,16.254C-151.95-101.236-154.177-95.818-158.628-91.471z
		 M-164.077-119.033c-3.004-3.108-6.688-4.662-11.057-4.662s-8.054,1.554-11.057,4.662s-4.504,6.877-4.504,11.308
		c0,4.433,1.501,8.202,4.504,11.309c3.003,3.109,6.688,4.662,11.057,4.662s8.053-1.553,11.057-4.662
		c3.002-3.107,4.505-6.876,4.505-11.309C-159.572-112.156-161.075-115.924-164.077-119.033z"/>
	<path fill="#FFFFFF" d="M-122.654-85.391h-8.316l-17.702-44.038h8.315l13.545,32.885l13.545-32.885h8.316L-122.654-85.391z"/>
	<path fill="#FFFFFF" d="M-67.151-129.428v6.993H-90.65v11.655h21.105v6.614H-90.65v11.781h24.255v6.994h-31.688v-44.038H-67.151z"
		/>
	<path fill="#FFFFFF" d="M-50.079-95.408l-4.409,10.018h-7.938l19.404-44.038h7.938l19.404,44.038h-7.938l-4.409-10.018H-50.079z
		 M-31.053-102.275l-8.001-18.144l-8.001,18.144H-31.053z"/>
	<path fill="#FFFFFF" d="M10.273-85.391H-9.004v-44.038H8.132c2.981,0,5.554,0.357,7.718,1.071c2.162,0.715,3.769,1.68,4.819,2.897
		c2.016,2.269,3.023,4.831,3.023,7.687c0,3.444-1.092,6.007-3.275,7.686c-0.799,0.589-1.345,0.956-1.639,1.103
		c-0.294,0.147-0.818,0.389-1.574,0.725c2.729,0.589,4.903,1.817,6.521,3.686c1.616,1.87,2.425,4.19,2.425,6.961
		c0,3.066-1.05,5.775-3.149,8.127C20.521-86.756,16.279-85.391,10.273-85.391z M-1.57-111.158h9.45c5.376,0,8.063-1.827,8.063-5.481
		c0-2.1-0.651-3.611-1.952-4.536c-1.303-0.923-3.318-1.386-6.049-1.386H-1.57V-111.158z M-1.57-92.258h11.655
		c2.729,0,4.819-0.43,6.269-1.291s2.173-2.49,2.173-4.883c0-3.906-3.129-5.86-9.387-5.86H-1.57V-92.258z"/>
	<path fill="#FFFFFF" d="M36.041-85.391v-44.038h7.434v36.981h20.097v7.057H36.041z"/>
	<path fill="#FFFFFF" d="M103.198-129.428v6.993H79.699v11.655h21.105v6.614H79.699v11.781h24.255v6.994H72.266v-44.038H103.198z"/>
</g>
<g opacity="0.5">
	<defs>
		<path id="SVGID_7_" opacity="0.5" d="M-155.835-101.998c2.737-3.883,4.347-8.639,4.347-13.775
			c0-13.104-10.477-23.727-23.399-23.727c-12.925,0-23.401,10.622-23.401,23.727c0,4.848,1.433,9.354,3.895,13.111h-0.031
			l19.538,31.742L-155.835-101.998z"/>
	</defs>
	<use xlink:href="#SVGID_7_"  overflow="visible" fill-rule="evenodd" clip-rule="evenodd"/>
	<clipPath id="SVGID_8_">
		<use xlink:href="#SVGID_7_"  overflow="visible"/>
	</clipPath>
	
		<rect x="-201.152" y="-142.362" clip-path="url(#SVGID_8_)" fill-rule="evenodd" clip-rule="evenodd" width="52.525" height="74.303"/>
</g>
<g>
	<defs>
		<path id="SVGID_9_" d="M-158.793-103.579c2.737-3.884,4.347-8.64,4.347-13.775c0-13.104-10.477-23.727-23.399-23.727
			c-12.925,0-23.401,10.622-23.401,23.727c0,4.848,1.433,9.354,3.895,13.111h-0.031l19.538,31.743L-158.793-103.579z"/>
	</defs>
	<clipPath id="SVGID_10_">
		<use xlink:href="#SVGID_9_"  overflow="visible"/>
	</clipPath>
	
		<rect x="-204.11" y="-143.943" clip-path="url(#SVGID_10_)" fill-rule="evenodd" clip-rule="evenodd" fill="#871639" width="52.525" height="74.304"/>
</g>
<g>
	<defs>
		<ellipse id="SVGID_11_" cx="-176.846" cy="-117.645" rx="14.441" ry="13.854"/>
	</defs>
	<clipPath id="SVGID_12_">
		<use xlink:href="#SVGID_11_"  overflow="visible"/>
	</clipPath>
	
		<rect x="-194.15" y="-134.362" clip-path="url(#SVGID_12_)" fill-rule="evenodd" clip-rule="evenodd" fill="#A94259" width="34.608" height="33.432"/>
</g>
</svg>
