<?xml version="1.0" encoding="utf-8"?>
<!-- Generator: Adobe Illustrator 16.0.0, SVG Export Plug-In . SVG Version: 6.00 Build 0)  -->
<!DOCTYPE svg PUBLIC "-//W3C//DTD SVG 1.1//EN" "http://www.w3.org/Graphics/SVG/1.1/DTD/svg11.dtd">
<svg version="1.1" id="Layer_1" xmlns="http://www.w3.org/2000/svg" xmlns:xlink="http://www.w3.org/1999/xlink" x="0px" y="0px"
	 width="372.16px" height="76px" viewBox="0 0 372.16 76" enable-background="new 0 0 372.16 76" xml:space="preserve">
<text transform="matrix(1 0 0 1 0.499 265.0859)" opacity="0.5"><tspan x="0" y="0" font-family="'Montserrat-Regular'" font-size="63">M</tspan><tspan x="62.495" y="0" opacity="0" font-family="'Montserrat-Regular'" font-size="63">O</tspan><tspan x="115.981" y="0" font-family="'Montserrat-Regular'" font-size="63">VEABLE</tspan></text>
<text transform="matrix(1 0 0 1 -2.501 262.0859)"><tspan x="0" y="0" fill="#FFFFFF" font-family="'Montserrat-Regular'" font-size="63">M</tspan><tspan x="62.495" y="0" opacity="0" fill="#FFFFFF" font-family="'Montserrat-Regular'" font-size="63">O</tspan><tspan x="115.981" y="0" fill="#FFFFFF" font-family="'Montserrat-Regular'" font-size="63">VEABLE</tspan></text>
<g opacity="0.5">
	<defs>
		<path id="SVGID_1_" opacity="0.5" d="M105.753,245.48c2.737-3.885,4.347-8.641,4.347-13.775c0-13.105-10.477-23.727-23.399-23.727
			c-12.925,0-23.401,10.621-23.401,23.727c0,4.848,1.433,9.354,3.895,13.111h-0.031L86.7,276.559L105.753,245.48z"/>
	</defs>
	<use xlink:href="#SVGID_1_"  overflow="visible" fill-rule="evenodd" clip-rule="evenodd"/>
	<clipPath id="SVGID_2_">
		<use xlink:href="#SVGID_1_"  overflow="visible"/>
	</clipPath>
	
		<rect x="60.436" y="205.115" clip-path="url(#SVGID_2_)" fill-rule="evenodd" clip-rule="evenodd" width="52.525" height="74.305"/>
</g>
<g>
	<defs>
		<path id="SVGID_3_" d="M102.795,243.898c2.737-3.883,4.347-8.639,4.347-13.775c0-13.104-10.477-23.727-23.399-23.727
			c-12.925,0-23.401,10.623-23.401,23.727c0,4.848,1.433,9.355,3.895,13.111h-0.031l19.538,31.742L102.795,243.898z"/>
	</defs>
	<clipPath id="SVGID_4_">
		<use xlink:href="#SVGID_3_"  overflow="visible"/>
	</clipPath>
	
		<rect x="57.478" y="203.535" clip-path="url(#SVGID_4_)" fill-rule="evenodd" clip-rule="evenodd" fill="#871639" width="52.525" height="74.303"/>
</g>
<g>
	<defs>
		<ellipse id="SVGID_5_" cx="84.742" cy="229.833" rx="14.441" ry="13.854"/>
	</defs>
	<clipPath id="SVGID_6_">
		<use xlink:href="#SVGID_5_"  overflow="visible"/>
	</clipPath>
	
		<rect x="67.438" y="213.115" clip-path="url(#SVGID_6_)" fill-rule="evenodd" clip-rule="evenodd" fill="#A94259" width="34.608" height="33.434"/>
</g>
<g opacity="0.5">
	<path d="M13.856,61.609H6.423V17.572h11.592l13.293,27.657l13.293-27.657H56.13v44.038h-7.435V27.21L33.323,57.766h-4.158
		L13.856,27.21V61.609z"/>
	<path opacity="0" d="M105.772,55.529c-4.452,4.348-9.954,6.521-16.506,6.521s-12.055-2.174-16.506-6.521
		c-4.452-4.348-6.678-9.766-6.678-16.254c0-6.488,2.226-11.906,6.678-16.254c4.451-4.347,9.954-6.521,16.506-6.521
		s12.054,2.174,16.506,6.521c4.451,4.348,6.678,9.766,6.678,16.254C112.45,45.764,110.224,51.182,105.772,55.529z M100.323,27.967
		c-3.004-3.108-6.688-4.662-11.057-4.662s-8.054,1.554-11.057,4.662s-4.504,6.877-4.504,11.308c0,4.432,1.501,8.202,4.504,11.309
		c3.003,3.109,6.688,4.662,11.057,4.662s8.053-1.553,11.057-4.662c3.002-3.107,4.505-6.877,4.505-11.309
		C104.828,34.844,103.325,31.076,100.323,27.967z"/>
	<path d="M141.746,61.609h-8.316l-17.702-44.038h8.315l13.545,32.885l13.545-32.885h8.316L141.746,61.609z"/>
	<path d="M197.249,17.572v6.993H173.75V36.22h21.105v6.614H173.75v11.781h24.255v6.994h-31.688V17.572H197.249z"/>
	<path d="M214.321,51.592l-4.409,10.018h-7.938l19.404-44.038h7.938l19.404,44.038h-7.938l-4.409-10.018H214.321z M233.348,44.725
		l-8.001-18.144l-8.001,18.144H233.348z"/>
	<path d="M274.674,61.609h-19.277V17.572h17.136c2.981,0,5.554,0.357,7.718,1.071c2.162,0.715,3.769,1.68,4.819,2.897
		c2.016,2.269,3.023,4.831,3.023,7.687c0,3.444-1.092,6.007-3.275,7.686c-0.799,0.589-1.345,0.956-1.639,1.103
		c-0.294,0.147-0.818,0.389-1.574,0.725c2.729,0.589,4.903,1.817,6.521,3.686c1.616,1.869,2.425,4.189,2.425,6.961
		c0,3.066-1.05,5.775-3.149,8.127C284.922,60.244,280.68,61.609,274.674,61.609z M262.83,35.842h9.45
		c5.376,0,8.063-1.827,8.063-5.481c0-2.1-0.651-3.611-1.952-4.536c-1.303-0.923-3.318-1.386-6.049-1.386h-9.513V35.842z
		 M262.83,54.742h11.655c2.729,0,4.819-0.43,6.269-1.291s2.173-2.49,2.173-4.883c0-3.906-3.129-5.859-9.387-5.859h-10.71V54.742z"/>
	<path d="M300.441,61.609V17.572h7.434v36.981h20.097v7.057H300.441z"/>
	<path d="M367.599,17.572v6.993H344.1V36.22h21.105v6.614H344.1v11.781h24.255v6.994h-31.688V17.572H367.599z"/>
</g>
<g>
	<path fill="#FFFFFF" d="M10.856,58.609H3.423V14.572h11.592l13.293,27.657l13.293-27.657H53.13v44.038h-7.435V24.21L30.323,54.766
		h-4.158L10.856,24.21V58.609z"/>
	<path opacity="0" fill="#FFFFFF" d="M102.772,52.529c-4.452,4.348-9.954,6.521-16.506,6.521s-12.055-2.174-16.506-6.521
		c-4.452-4.348-6.678-9.766-6.678-16.254c0-6.488,2.226-11.906,6.678-16.254c4.451-4.347,9.954-6.521,16.506-6.521
		s12.054,2.174,16.506,6.521c4.451,4.348,6.678,9.766,6.678,16.254C109.45,42.764,107.224,48.182,102.772,52.529z M97.323,24.967
		c-3.004-3.108-6.688-4.662-11.057-4.662s-8.054,1.554-11.057,4.662s-4.504,6.877-4.504,11.308c0,4.433,1.501,8.202,4.504,11.309
		c3.003,3.109,6.688,4.662,11.057,4.662s8.053-1.553,11.057-4.662c3.002-3.107,4.505-6.876,4.505-11.309
		C101.828,31.844,100.325,28.076,97.323,24.967z"/>
	<path fill="#FFFFFF" d="M138.746,58.609h-8.316l-17.702-44.038h8.315l13.545,32.885l13.545-32.885h8.316L138.746,58.609z"/>
	<path fill="#FFFFFF" d="M194.249,14.572v6.993H170.75V33.22h21.105v6.614H170.75v11.781h24.255v6.994h-31.688V14.572H194.249z"/>
	<path fill="#FFFFFF" d="M211.321,48.592l-4.409,10.018h-7.938l19.404-44.038h7.938l19.404,44.038h-7.938l-4.409-10.018H211.321z
		 M230.348,41.725l-8.001-18.144l-8.001,18.144H230.348z"/>
	<path fill="#FFFFFF" d="M271.674,58.609h-19.277V14.572h17.136c2.981,0,5.554,0.357,7.718,1.071
		c2.162,0.715,3.769,1.68,4.819,2.897c2.016,2.269,3.023,4.831,3.023,7.687c0,3.444-1.092,6.007-3.275,7.686
		c-0.799,0.589-1.345,0.956-1.639,1.103c-0.294,0.147-0.818,0.389-1.574,0.725c2.729,0.589,4.903,1.817,6.521,3.686
		c1.616,1.87,2.425,4.19,2.425,6.961c0,3.066-1.05,5.775-3.149,8.127C281.922,57.244,277.68,58.609,271.674,58.609z M259.83,32.842
		h9.45c5.376,0,8.063-1.827,8.063-5.481c0-2.1-0.651-3.611-1.952-4.536c-1.303-0.923-3.318-1.386-6.049-1.386h-9.513V32.842z
		 M259.83,51.742h11.655c2.729,0,4.819-0.43,6.269-1.291s2.173-2.49,2.173-4.883c0-3.906-3.129-5.86-9.387-5.86h-10.71V51.742z"/>
	<path fill="#FFFFFF" d="M297.441,58.609V14.572h7.434v36.981h20.097v7.057H297.441z"/>
	<path fill="#FFFFFF" d="M364.599,14.572v6.993H341.1V33.22h21.105v6.614H341.1v11.781h24.255v6.994h-31.688V14.572H364.599z"/>
</g>
<g opacity="0.5">
	<defs>
		<path id="SVGID_7_" opacity="0.5" d="M105.565,42.002c2.737-3.883,4.347-8.639,4.347-13.775c0-13.104-10.477-23.727-23.399-23.727
			c-12.925,0-23.401,10.622-23.401,23.727c0,4.848,1.433,9.354,3.895,13.111h-0.031L86.513,73.08L105.565,42.002z"/>
	</defs>
	<use xlink:href="#SVGID_7_"  overflow="visible" fill-rule="evenodd" clip-rule="evenodd"/>
	<clipPath id="SVGID_8_">
		<use xlink:href="#SVGID_7_"  overflow="visible"/>
	</clipPath>
	<rect x="60.248" y="1.638" clip-path="url(#SVGID_8_)" fill-rule="evenodd" clip-rule="evenodd" width="52.525" height="74.303"/>
</g>
<g>
	<defs>
		<path id="SVGID_9_" d="M102.607,40.421c2.737-3.884,4.347-8.64,4.347-13.775c0-13.104-10.477-23.727-23.399-23.727
			c-12.925,0-23.401,10.622-23.401,23.727c0,4.848,1.433,9.354,3.895,13.111h-0.031L83.555,71.5L102.607,40.421z"/>
	</defs>
	<clipPath id="SVGID_10_">
		<use xlink:href="#SVGID_9_"  overflow="visible"/>
	</clipPath>
	
		<rect x="57.29" y="0.057" clip-path="url(#SVGID_10_)" fill-rule="evenodd" clip-rule="evenodd" fill="#871639" width="52.525" height="74.304"/>
</g>
<g>
	<defs>
		<ellipse id="SVGID_11_" cx="84.555" cy="26.355" rx="14.441" ry="13.854"/>
	</defs>
	<clipPath id="SVGID_12_">
		<use xlink:href="#SVGID_11_"  overflow="visible"/>
	</clipPath>
	
		<rect x="67.25" y="9.638" clip-path="url(#SVGID_12_)" fill-rule="evenodd" clip-rule="evenodd" fill="#A94259" width="34.608" height="33.432"/>
</g>
</svg>
